# xmcd CD database file
#
# Track frame offsets:
#	151
#	12993
#	25907
#	35836
#	48101
#	60277
#	72917
#	85174
#	98137
#	114505
#
# Disc length: 1748 seconds
#
# Revision: 0
# Processed by: cddbd v1.5.1PL0 Copyright (c) Steve Scherf et al.
# Submitted via: CDex 1.51
#
DISCID=7706d20a
DTITLE=Merle Haggard - American Music Legends
DYEAR=2004
DGENRE=Country
TTITLE0=Sing Me Back Home
TTITLE1=Swinging Doors
TTITLE2=Mama Tried
TTITLE3=Okie From Muskogee
TTITLE4=Workin' Man Blues
TTITLE5=Silver Wings
TTITLE6=The Bottle Let Me Down
TTITLE7=The Fightin' Side of Me
TTITLE8=Hungry Eyes
TTITLE9=Ramblin' Fever
EXTD=YEAR: 2004
EXTT0=
EXTT1=
EXTT2=
EXTT3=
EXTT4=
EXTT5=
EXTT6=
EXTT7=
EXTT8=
EXTT9=
PLAYORDER=
